/* XPM */
static char *bfc7f28feaae481a98e86ce4c93e646fWV4fKc75ec09IF8d[] = {
/* columns rows colors chars-per-pixel */
"60 60 237 2 ",
"   c #2C1E05",
".  c #311F04",
"X  c #342205",
"o  c #3B2406",
"O  c #3C2909",
"+  c #2F2914",
"@  c #393217",
"#  c #48290A",
"$  c #562A09",
"%  c #49330B",
"&  c #473916",
"*  c #503310",
"=  c #543413",
"-  c #583B16",
";  c #6E2C0A",
":  c #673A16",
">  c #763B15",
",  c #423924",
"<  c #594517",
"1  c #52451B",
"2  c #554519",
"3  c #5B4C1C",
"4  c #664817",
"5  c #77461A",
"6  c #6B5417",
"7  c #64531B",
"8  c #6D5A1D",
"9  c #735D1C",
"0  c #795919",
"q  c #77611D",
"w  c #7B641D",
"e  c #564B25",
"r  c #53492D",
"t  c #5D5126",
"y  c #784A23",
"u  c #645424",
"i  c #6C5B23",
"p  c #6A552F",
"a  c #695929",
"s  c #715E23",
"d  c #775528",
"f  c #6F612D",
"g  c #756222",
"h  c #7B6522",
"j  c #7E6924",
"k  c #73622B",
"l  c #7A652B",
"z  c #7C6A2D",
"x  c #796735",
"c  c #766A44",
"v  c #94330C",
"b  c #883B14",
"n  c #AF3910",
"m  c #CB3F12",
"M  c #88481D",
"N  c #9B441A",
"B  c #A7461B",
"V  c #B9461A",
"C  c #85691D",
"Z  c #846A1C",
"A  c #8D711E",
"S  c #95761D",
"D  c #85562A",
"F  c #8E542A",
"G  c #97562A",
"H  c #AB5629",
"J  c #A85A2C",
"K  c #B9592A",
"L  c #836C24",
"P  c #886A26",
"I  c #836E2C",
"U  c #8B7324",
"Y  c #87722B",
"T  c #8B742C",
"R  c #917624",
"E  c #957A25",
"W  c #9B7D24",
"Q  c #937629",
"!  c #947B2B",
"~  c #997E2A",
"^  c #846B34",
"/  c #986638",
"(  c #857232",
")  c #8A7533",
"_  c #8B7839",
"`  c #937D34",
"'  c #927C3B",
"]  c #A86738",
"[  c #B86838",
"{  c #C2491C",
"}  c #DA4617",
"|  c #E14C1B",
" . c #C65B2A",
".. c #D95A28",
"X. c #E35927",
"o. c #CF6835",
"O. c #D86734",
"+. c #E5622E",
"@. c #E66A36",
"#. c #E7743E",
"$. c #887845",
"%. c #967544",
"&. c #8A7C56",
"*. c #B37744",
"=. c #877E66",
"-. c #C77844",
";. c #D77C46",
":. c #E87A43",
">. c #9D8126",
",. c #9C822B",
"<. c #9B8333",
"1. c #97813A",
"2. c #9C853B",
"3. c #A28325",
"4. c #A88826",
"5. c #AB8A26",
"6. c #A2862C",
"7. c #A5892C",
"8. c #AC8D2B",
"9. c #B18E25",
"0. c #B08F2A",
"q. c #AE902F",
"w. c #B79326",
"e. c #B3932B",
"r. c #BA962A",
"t. c #BC9A2C",
"y. c #A58A34",
"u. c #A58937",
"i. c #A98E33",
"p. c #A48C3B",
"a. c #AC9135",
"s. c #A6903C",
"d. c #AD933C",
"f. c #B69836",
"g. c #B2963B",
"h. c #BB9D3A",
"j. c #BEA13C",
"k. c #C19D2C",
"l. c #C99F2B",
"z. c #C19D31",
"x. c #C6A22D",
"c. c #CBA52D",
"v. c #CEA92E",
"b. c #D3A92C",
"n. c #D3AB2D",
"m. c #DCB22F",
"M. c #C4A233",
"N. c #CEAA32",
"B. c #CBA836",
"V. c #C3A33A",
"C. c #D3AD33",
"Z. c #D6AF35",
"A. c #DCB433",
"S. c #D8B439",
"D. c #DBB53A",
"F. c #E2B72F",
"G. c #E1B632",
"H. c #E5BA33",
"J. c #E9BE34",
"K. c #E5BC3A",
"L. c #E8BE39",
"P. c #EDC235",
"I. c #E7C03A",
"U. c #EDC33A",
"Y. c #F2C635",
"T. c #F3C835",
"R. c #F2C739",
"E. c #F2C83B",
"W. c #9A8644",
"Q. c #94875A",
"!. c #A38D43",
"~. c #A38E48",
"^. c #AB9343",
"/. c #A69249",
"(. c #AB954A",
"). c #B49A42",
"_. c #BA9E43",
"`. c #B49B48",
"'. c #B48B51",
"]. c #A99559",
"[. c #BCA248",
"{. c #BBA356",
"}. c #968D70",
"|. c #AC9C6D",
" X c #BDAB76",
".X c #D28952",
"XX c #EB844C",
"oX c #EB8D53",
"OX c #E4955A",
"+X c #EE9358",
"@X c #EF9A5E",
"#X c #C6A948",
"$X c #D0AE42",
"%X c #CDB149",
"&X c #D5B343",
"*X c #DBB947",
"=X c #D3B54C",
"-X c #C5AA54",
";X c #CCB357",
":X c #D5B956",
">X c #DABC54",
",X c #D5BA5C",
"<X c #E2BD44",
"1X c #D59A60",
"2X c #CEAD6C",
"3X c #D3BC66",
"4X c #E9AA6D",
"5X c #F1A466",
"6X c #F2AC6E",
"7X c #F4B676",
"8X c #DEC25B",
"9X c #EBC442",
"0X c #E9C549",
"qX c #F2CA43",
"wX c #F1CA47",
"eX c #E5C555",
"rX c #DCC365",
"tX c #D9C377",
"yX c #E1C562",
"uX c #B9AD8D",
"iX c #B5AE9C",
"pX c #CABA8A",
"aX c #C7BEA4",
"sX c #D7C798",
"dX c #F4CA88",
"fX c #D2C9B1",
"gX c #E4D9B5",
"hX c #DBD6C7",
"jX c #D9D5CB",
"kX c #E3DBC7",
"lX c #E2DDD2",
"zX c #ECE4CD",
"xX c #E9E4D8",
"cX c #F0ECE4",
"vX c #F6F3EA",
"bX c #F9F7F3",
"nX c white",
/* pixels */
"! Y.Y.Y.R.R.R.Y.Y.T.W C.T.P.1 D.Y.Y.T.Y.R.U.P.T.P.R.R.U G.Y.R.j R.R.R.R.t.6.A.P.Y.Y.R.R.t.e.Y.P.C.L Y.Y.Y.U.Y.P.Y.R.R.H.",
"3 Q U E E E E E 6.,.& s ! Q + ~ 8.~ 6.8.7.,.U U E U ~ 1 U ,.! + Y ~ 7.,.7 7 ,.>.! 6.>.! i i j Y g 1 8.7.7.6.~ ! Q R E g ",
",X,X,X,X:X:X~.W.,X3X3XtXtX3X3X,X3XrX3X$.W.rXrX8X8XyXrX,X:X:X:X;Xe -X:X:X=X>X,X8X>X:XW.W.8X8X>X>X>X>X=X8X3XQ.$.).j.y.#X;X",
"Y.Y.Y.Y.Y.Y.M.e.Y.Y.Y.Y.Y.Y.T.Y.Y.Y.G.~ e.R.Y.Y.T.Y.T.T.T.T.T.P.8 I.Y.Y.T.T.Y.Y.T.Y.7.8.P.Y.Y.Y.Y.Y.Y.Y.Y.t.! A.Y.Y.Y.Y.",
"c.c.c.N.N.N.7.,.Z.Z.n.n.n.n.x.v.v.x.t.L E v.x.x.c.c.c.c.C.C.Z.N.3 t.v.N.N.x.k.x.c.c.L U M.c.v.c.C.Z.D.Z.Z.y.I h.D.N.c.c.",
"l 1 ) _ l x x x $.2.` i L Y k z ) x z t t k k k z ( z e _ 2.2.1.k I T T T a e a Y ( u a ( T I e _ W.~.~.~.W.$.~./.u z ( ",
"%Xe eX>Xj.#X%X{.#X9X9Xk h.&X0X&XeXeXeX#Xp.d.wXwXwXwX0Xa *XwXwXqXE.E.qXqXwXj.<.&XwXwX0X0XqXqX&Xa V.qXwXwX0X9X9X9X9Xe #XeX",
"J.i P.Y.Y.T.Y.D.A.Y.Y.q M.Y.Y.P.Y.Y.P.A.e.r.P.P.Y.Y.R.h A.T.T.T.Y.Y.Y.T.T.c.7.A.Y.Y.T.Y.Y.Y.J.h t.Y.Y.Y.Y.P.P.Y.P.7 M.J.",
",.& 8.7.>.4.>.L Q 3.3.& 8 q E L >.W U h i h 7.,.~ >.~ 1 E 7.7.6.8.8.8.8.8.U s ! ,.7.8.7.3.7.T & k 6.,.~ ,.,.! ~ ` , Y 7.",
"[.~.{.[.1.` [.).!._ ^.!.!.W.!.a ) ).^.s.^.`.-X{.`.' _ ~.[.[.[.`.#X#X#X2.I ).d._.a.g.[.`.f _.g.p.d._.s.1.).y.( p.).!.`.#X",
"wXwXwX9Xa.i.qXqXD.a.&XwXwXwX9Xy.i.qXqXqXqXqXwXwXwXh.i.0XwXwXwXwXqXqXqXV.~ qXqXE.D.I.E.<Xz qXE.qXE.E.D.h.D.h.j D.E.U.qXqX",
"Y.P.P.J.e.8.Y.Y.A.e.A.Y.Y.Y.Y.8.e.Y.T.T.Y.Y.Y.Y.Y.t.6.G.Y.Y.Y.Y.Y.T.Y.M.E T.Y.P.P.P.Y.J.h P.Z.Y.Y.Y.A.e.r.$.].% Y.Y.Y.Y.",
"7 7 z z a e I a t & 1 9 h w 9 & < w w q q q w w q 3 @ 3 i 9 8 7 8 h q 2 @ 8 6 3 2 7 8 3 @ 1 + 7 i g i e & 2XdXX 8 3 7 7 ",
"_ !.`.<.a.>XeX8X>XW.W.=X>X=Xu =X:X,X>X>X^.f ;X,X,X;X;X,X[.%X>X:X(.l =X=X=X>X>X=X=X=Xf %X[.^.& {.;X:X=X=Xj dX2X- *X=X%Xe ",
",.t.U.P.P.Y.Y.R.R.7.f.U.R.U.h R.R.R.R.R.z.L D.R.R.R.R.E.Y.Y.T.U.V.Y R.R.Y.Y.Y.R.R.R.T v.1 %.f J.R.R.Y.P.U dX2X4 U.U.K.7 ",
",.e.P.P.Y.Y.Y.Y.Y.4.t.P.Y.U.g R.P.Y.P.G.t.E J.T.Y.Y.Y.Y.T.T.T.Y.A.j P.Y.Y.Y.Y.P.4.%._ 6 2X2X% A.Y.Y.Y.Y.Q dX2X6 P.P.J.i ",
"1 1 8 9 9 8 7 1 1 @ 3 i h s @ Y 8 j U ! i & g U h g L 3 i 8 8 s h 1 U U U U L l 1X% - 4X7X7XX u 7 3 1 3 %.7X2X& g L i @ ",
",X_.=X>X#Xx !.>X>X8X3XrXyXrXrX-X+ {.{.,X,X,X,XrX].$.i ^ ^ l l ^ ^ ) _ y.` ( 2.1X- O o %.7X1X< >X,X8X^.t 4X7X4X$.3XrX,X,X",
"P.P.P.P.A.E t.Y.Y.Y.P.Y.Y.P.J.P.& Y.Y.Y.Y.Y.T.Y.w d '.7X7X7X7X7X7X7X7X4X'.Q / 1Xo G.t.p 7X^ S Y.Y.P.t.d '.7X7XP P.P.P.P.",
"v.k.k.c.t.j ~ A.A.n.n.c.v.c.e.t.@ v.n.n.v.v.v.n.- '..X6X6X6X6X6X6X6X6X6X6X/ 4X/ 4 N.Z.- < X 3.c.v.z.C '.= 6X6Xd c.v.x.v.",
"I @ z ! ! i a y.,.z ( k z ` <.I @ x x l u 1 k ) d 5X*.1X/ / 5X/ 4 4 ^ OX5X/ 5X- i z <.X X T ` I s <.4 ] X 5X5X*.d & u T ",
"=X& =X*X*X&X#X=Xy.z I L ^ P ^ ^ d z ( ' ` t 1.%XF 5XD X X F 5Xy X o X 4 *.*.5XX a ).*X<.a.j l =Xa #X] % % OX5XOXD % ` *X",
"K.2 P.Y.Y.t.Z.J.e.= ] @X@X@X@X@X@X@XOX*.D 6.8.Y./ @XD 6 9.] @X4 - / 0 -.* OX.X% 6 0 D *..XOX4 A.h d .X] *..X@X@XO 6 7.J.",
"M.& n.n.6 / ] D q = ] +X+X+X+X+X+X+X+X+X+Xy ,.4.-.+XF c.e.[ +X4 : = / D = +X.X= ] ] G y oX+X: 4.y .X] - . ] +X+XD 7.E x.",
"!.x p.p.y -.oXoX[ 5 ] -.F -.oXD : : G XXoX* W.d oXoX/ ) i -.oX: = y ] X 4 oX.X. . . X X -.oXy [ ;.[ X o - D oXoX.Xi ' 2.",
"D.D.Z.e.= ] XXXXXXXX] X X J XX= . X . y ] * V.J ] XX[ ! 8 ;.XX5 : -.o U = XXXXo % 9 8.- -.XXXX] [ * 4 D.f.- XX] # 6 D.Z.",
"P.P.P.n.X 5 XX[ XXXXXXJ A [ XX# - 5 6 ] # 9.A [ M XXo.U 6 ;.XXJ o.% < J.O :.:.5 A.Z.e.5 M XXG G y % x.C.8.. - X X n.P.H.",
"v.v.N.N.U G :.X G :.:.:.M o.:.% = # J : % J.M : 5 :.:.4 = :.:.#.= - Y.P.6 G :.o.0 C G # : :.: J X 3.,.x.e.O X C P.P.P.P.",
"& (.(.(._ H #.o X : #.#.J O.#.# # F M X _ < K X : #.#.o.: #.#.o.O C U j < X 5 K K > X O : K : o 4 U u j s 1 8 U T L Y ' ",
"3 Z.A.P.e. .O.< S O > @.M @.@.* > H o S M.M M M K @.@.H # @.@.o.o.M U y.h.! X . # : K @.K 5 . X eXeXeXeXeXeXeX*X:X2.<.D.",
"3 P.P.P.4. .@.6 H.3.X O.> @.@.M  .o < 3.5 O.K : o @.@.@.4 @.@.H : @. .K K K  .O.@.@.@. .N X w L Y.Y.Y.Y.Y.Y.Y.Y.P.8.3.J.",
"@ w h q < ..+.& 9 w O  .$ +.+...# O - B +.M . X o  .+.+.B +.+. .X $ H +.+.+.+.+.+.+.K > # < U 3 >.e.8.4.8.e.e.e.0.L i ,.",
"0X2.0X0XP X.X.C &X&X0 B = X.X.B X : X.> V X 7 #X< N X.B ; X.X.X.< o o # > b b b > # X X X Y =X=X&X&Xy.h D.D.*X*X#X%X>X*X",
"k.! t.c.6 X.X.0 J.F.N $ > X.X...B b B B $ q v.r.5 N { V { { V V % Z.A O o o X O o O 9 9 N.~ Z.C.Z.C.>.j Z.N.C.B.M.N.c.C.",
"8.6.i q.4 | | 5 G.5 v o M | | v v | } } b b B } | | | V n b ; # O f.a.<.! j j L i y.).) a.y.i.z ) ` k l s.T ~ y.k <.<.i.",
"f.a.I f.4 | | b 0 { o 6.> | | n X ; n | | | | | | | n b # X o O s j.f.a.f.g.g.~ T y.h.T j.f.V.y.j.j.y.` V.g.h.i.T f.h.V.",
").g.g.d.$ } | n n $ % ).; } } m < X X $ > v n v ; o X X o e g._.[.[._.g.g.).).a ` <.p.t p.p.g.).).).^.p.).d.).t ` ).).g.",
"H.P.H.J.# v n n # % H.P.$ n v v 6 x.% X O X X X X o w 4 e.q P.P.P.P.P.P.P.P.J.Q t.J.J.U G.J.J.H.J.P.J.J.J.J.J.j k.H.J.J.",
"( 1.1.Y o v v . o k ! <.. ; $ # - p.` a I j 9 9 Q f.a.a.` t a.g.a.y.i.i.7.W ~ u I i.7.u T U ! ` ,.U 6.! T <.<.a z L Q ~ ",
"' 2.6 v v # X < (.p.<.y.X X o X T h.h.g.h.V.` T f.V.V.V.h.a.h.h.f.f.h.h.y.j ,.y.i.f.f.i.i.y.y.i.<.i a.! l y.a.i.7.1 ! 6.",
"A.A.% . X X 0 J.L.J.G.D.3 0.A.J.J.J.J.J.J.J.8.7.G.P.P.J.J.H.H.A.A.A.A.A.k.E k.A.m.m.m.Z.Z.Z.C.Z.t.h n.8.E x.v.n.n.6 z.Z.",
"e.t.6 X < 7 L e.e.e.t.t.& 7.t.k.k.e.k.x.v.k.L h e.e.r.r.e.e.9.4.e.3.f.4.A 9 3.h.sX2Xe.Q U R 4.4.U & U 8 2 9 A ^.pXa >.e.",
"k 1 1 ^./.~.(.`.`.(.x ~.~.^.s e @ f _ _ $.$.$.$.c p e 1 1 Y 2.~.].hXhX1.1.' W. XnX}.$.]._ $.nXvXQ.r c c $.$.=.bXnXxXp , ",
"c.U j A.A.A.A.A.G.A.N.A.A.A.n.f.& t.v.c.v.C.N.N.N.M.t.8.7 e.e.sXnXnXgX9.r.r.t.2XnXuX8.8.8.`.zXzXnXbX(.8._.2XxXvXfXvX8.+ ",
"Z.E C n.n.n.m.m.m.m.m.m.m.m.n.t.& 4.v.v.v.v.n.n.n.v.l.8.< 4.4.zXnX2X4.g.sX2X9.{.nXpXa.xXsX{.pXzXnXnX4.-XnXnXbXnXnXgXx.3 ",
"W 2 & C q w C C w 8 W e.4.3.9.L   3 |.kXuXC C A A C I hXnXuX0 |.nXlXx ( nXuX0 %.nXxXbXnXnXnXnXnXiXQ.A fXbXgX(.1.2X6.>.& ",
"/.c lXhX&.Q.c 1 ( 1.' ! j + , iX}.c fXnXnXxX|.3 1 I fXcXaXvX=.uXvXnXnXnXnX=.e &.nXnXnXfXhXlXiX&.k u p nXfX( ) _ ' W.W.~.",
"c.k.vXzXq.pXkXuXW w.w.w.8.a cXnXbXy.W W.jXnXgX0 U 2XvXbXnXnXnXnXnXkXnXcXfX) r.r.;X-X-X-X9.E w.w.r.4.hXnX-Xk.k.x.n.Z.A.G.",
"r.4.cXxX XnXnXxXC s.bX2X{.fXnXsXbXvXnXnXnXvX X6 9 bXnXbXkXpXuXQ.].W W d._ 9 8.9.9.4.pXnXq.W 9.9.9.3.$.uX8.8.4.r.k.x.v.c.",
"j 9 xXxX&.hXnXjXhXbXnXnXnXnXbXnXvXnXnXuXr u 6 1 e nXiX8 < k i u h l z xXiXa I I k u f }.s u l 7 3 x e r a p a 3 h T T I ",
"_.! xXnXnXnXvXnXnXvXpXkXkX X~.}.x ].].~.kX~.7.6.a.nXgXy.1 f.V.V.B.#X%XtX:X&X&X&X*Xg.i #X*X*X*Xd.x ,X>X>X*X>X>Xe a.<XeXeX",
"n.7.sXkXkX2Xy.{.{.3.).4.9.9.9.6 w w.r.3XcXt.k.r.t.vXzXe.3 k.v.n.n.n.n.m.A.m.F.F.m.e.j n.H.H.A.e.h H.H.H.H.H.H.q r.H.H.H.",
"W h 6 6 C C w w aXfXnX1.A C C & 6 W W R R U W U E y.>.R & U ,.s.d.s.<.6.6.6.,.W ~ L 3 ,.>.4.4.L 3 8.4.4.4.W R 1 L q.e.8.",
"s.W.' _ x c x x |.].}.l ` ' 1.x z s y.y.p.!.^.p.!.^.^.( ( 1 I [.[.(.!.a.d.d.( I y.p.1.^.u ) (.~.W.(.' L q.Q & a 2.g.g.g.",
"<X*X*X$X_.!.2.V.V.B.i 6.B.&X&X&XV.k K.K.<X<X<X<X*X*X*X<.D.i ~ K.K.*XD.K.U.U.i.8.D.I.9X9Xi B.0X0X0X0Xj.,.K.D.7 7.K.L.L.<X",
"F.G.F.m.m.t.e.n.n.n.9 8.M.A.H.A.n.g m.A.A.H.H.H.H.F.H.W A.8 ,.J.J.J.J.J.J.J.4.7.A.J.J.J.8 A.J.J.J.J.k.3.J.A.8 4.J.H.H.H.",
"A A R A R L q U w C & 9 L 8 8 8 q 1 I s h 8 6 7 8 k z e z @ u ` Y T L h j T f p ^ _ _ _ p l I Y T z k e ( I 1 u L j L w ",
"<.y.i.6.! h ` %X#Xg.d.#X%Xe s.#X$X#X=X%X%X-X[.k T _.#X[.%X(.#X#X%X=X;X;X(.d.#X#X%X=X-X`.V.B.` d.D.B.B.B.$X$X[.[.#X%X%Xg.",
"A.G.G.A.x.L 8.K.K.G.G.J.H.7 M.J.J.J.K.K.L.D.D.! q.K.K.L.L.J.C.Z.L.K.L.K.V.t.K.K.J.K.D.G.J.H.U t.J.J.J.J.H.H.K.K.A.G.K.Z.",
"H.H.H.H.v.E 4.H.H.H.H.G.G.9 C.J.H.H.F.H.H.Z.N.U 8.H.H.H.J.J.N.C.H.H.H.H.k.t.J.H.c.t.C.A.G.N.L t.G.J.J.H.H.H.H.H.G.A.G.v."
};
