/* XPM */
static char *_d9390b51f3e44cb9403cf5e3258d66cs1Yo68W1jQToIa2z[] = {
/* columns rows colors chars-per-pixel */
"64 64 119 2 ",
"   c #000000",
".  c #080506",
"X  c #0B0A06",
"o  c #0A0A0A",
"O  c #130202",
"+  c #180303",
"@  c #120E06",
"#  c #141206",
"$  c #1B1A07",
"%  c #131209",
"&  c #1B1809",
"*  c #141414",
"=  c #181817",
"-  c #1B1B1A",
";  c #230404",
":  c #2C0304",
">  c #231F0C",
",  c #25220A",
"<  c #29260C",
"1  c #2E2A0C",
"2  c #332E0D",
"3  c #36310F",
"4  c #3B360D",
"5  c #232323",
"6  c #2C2C2C",
"7  c #343434",
"8  c #3C3C3C",
"9  c #400304",
"0  c #4E0506",
"q  c #560405",
"w  c #580404",
"e  c #6C0504",
"r  c #710404",
"t  c #7D0505",
"y  c #413C0E",
"u  c #4D460C",
"i  c #4D490F",
"p  c #524C0C",
"a  c #56510E",
"s  c #59530D",
"d  c #544D13",
"f  c #575311",
"g  c #5A5511",
"h  c #625B0D",
"j  c #635D12",
"k  c #69620F",
"l  c #6F690F",
"z  c #746D0E",
"x  c #7A730F",
"c  c #6A6312",
"v  c #736C11",
"b  c #767012",
"n  c #7B7410",
"m  c #7E7811",
"M  c #444444",
"N  c #4C4C4C",
"B  c #535353",
"V  c #5C5C5C",
"C  c #636363",
"Z  c #6C6C6C",
"A  c #747474",
"S  c #7C7C7C",
"D  c #850405",
"F  c #890405",
"G  c #960304",
"H  c #990304",
"J  c #807710",
"K  c #847B11",
"L  c #897E13",
"P  c #8C8313",
"I  c #908715",
"U  c #948C12",
"Y  c #988F13",
"T  c #9C9313",
"R  c #A1970F",
"E  c #A69D0F",
"W  c #A49B11",
"Q  c #A99F12",
"!  c #BEB20F",
"~  c #ABA113",
"^  c #B1A514",
"/  c #B6AB12",
"(  c #B8AD13",
")  c #BDB211",
"_  c #C1B40F",
"`  c #C7BB0E",
"'  c #C8BB0F",
"]  c #C1B512",
"[  c #C6BA11",
"{  c #C8BB10",
"}  c #848484",
"|  c #8C8C8C",
" . c #908F8E",
".. c #939393",
"X. c #9B9B9B",
"o. c #A3A3A3",
"O. c #A5A5A5",
"+. c #AAAAAA",
"@. c #ACACAC",
"#. c #B4B4B4",
"$. c gray71",
"%. c #BBBBBB",
"&. c #C3C3C3",
"*. c gray77",
"=. c #C8C8C8",
"-. c #CECECE",
";. c #D2D2D2",
":. c #D5D5D5",
">. c gray84",
",. c gray87",
"<. c #E1E1E1",
"1. c #E4E4E4",
"2. c #EBEBEB",
"3. c #EFEFEF",
"4. c #EFF0EF",
"5. c gray94",
"6. c #F6F6F6",
"7. c gray98",
"8. c #FEFEFE",
/* pixels */
"                                                                                                                                ",
"      B @.&.@.V .                                                                                                 * V } C *     ",
"    S 7.8.8.8.8.O.                                                                                              N 1.8.8.8.<.6   ",
"  . 1.8.8.8.8.8.8.N                                                                                           * 2.8.8.8.8.8.%.  ",
"  * 3.8.8.8.8.8.8.|                                     @ 3 d j c j p 3 @                                     B 8.8.8.8.8.8.5.. ",
"  * 3.8.8.8.8.8.8.|                               < l T ] ' ' ` ` ` { ' ] R v <                               B 8.8.8.8.8.8.8.6 ",
"O.-.7.8.8.8.8.8.8.M                           4 U [ ` ` ` ` [ ` ` ` ` [ [ ` ` [ Y y                           5 6.8.8.8.8.8.8.*.",
"8.8.8.8.8.8.8.8.Z                         $ P [ ' ` ` ` ` ` ` ` ` ` ` ` ` ` ` ` [ ' I ,                         | 8.8.8.8.8.8.8.",
"8.8.8.8.8.8.8.8.X..                     y ) [ ` ` ` ` ` ` ` ` ` ` ` ` ` ` ` ` { ` ` ` ) p .                     Z 8.8.8.8.8.8.8.",
"8.8.8.8.8.8.8.8.8.@.*                 f [ ` ~ ] ` ` ` ` ` ` ` ` ` ` ` ` ` ` ` ` [ ` ` { [ b .                 C 7.8.8.8.8.8.8.8.",
"8.8.8.8.8.8.8.8.8.8.=.-             s ' { L X ~ { ' [ { [ ` ` ` ` ` ` ` ` ` ` [ ` ` ^ c ( ` J .           . } 8.8.8.8.8.8.8.8.8.",
"8.8.8.8.8.8.8.8.8.8.8.,.6         y [ ` W X j ! g L [ ] [ ` ` ` ` ` ` ` ` ` ` [ Q ' ] 4 2 ` ` l         * O.8.8.8.8.8.8.8.8.8.8.",
"8.8.8.>.;.8.8.8.8.8.8.8.3.8     # / ` ~ & c { s > ~ k 2 { ` ` ` ` ` ` ` ` ` ` ) X Y ` / @ J ` [ y     5 >.8.8.8.8.8.8.8.<.,.8.8.",
"%.$.B . . | 7.8.8.8.8.8.8.3.5   L ` ' a y [ / # ^ ] # v ` ` ` ` ` ` ` ` ` ` ` [ 1 a ` ` c % ) ` ( @ - ,.8.8.8.8.8.8.8.*.- * ..<.",
"            S 7.8.8.8.8.8.7.6 , ] ` ` ^ ) ` Y i ` [ m _ ` ` ` ` ` ` ` ` ` ` ` ` Y z [ ` ( , ( ` [ h 7 7.8.8.8.8.8.8.+.o       . ",
"              S 8.8.8.8.8.;.. 1 p p p p p p p p p p p p p p p p p p p p p p p p p p p p p u p p p y    .8.8.8.8.8.X..           ",
"                S 8.8.8.8.Z . e t t D D D D D D D D D D D D D D D F F F F D D D D D D D D D D D D D 0 - 6.8.8.8.| .             ",
"                  } 8.8.5.- 9 H H H H H H H H H H H H H H H H H H H H H H H H H H H H H H H H H H H G + X.8.7.A .               ",
"                    S 8.=.. t H H H H H H H H H H H H H H H H H H H H H H H H H H H H H H H H H H H H 0 V 5.V                   ",
"                      C A O G H H H H H H H H H H H H H H H H H H H H H H H H H H H H H H H H H H H H r - 8                     ",
"                          : H H H H H H H H H H H H H H H H H H H H H H H H H H H H H G G H H H H G G F                         ",
"                          ; q q q q q q q q q q q q q q q q q q w w w w w w w w w w w w w q w w w w w q .                       ",
"      % a h k l z n m L L P P I U Y Y Y T T T T T T T T T T T T T T T T T Y Y Y U I I I I P P P P L K J J J x n x x z z z z 2   ",
"      c [ ` ` ` ` ` ` ` ` ` ` ' ` ` ` ` ` ` ` ` ` ` ` ` ` ` ` ` ` ` ` ` ` ` ' ` ` ` ` ` ` ` ` ` ` ` ` ` ' ` [ [ ` ` ` ` ` ` P   ",
"      2 T W W Q Q Q ~ ~ ~ ~ ~ Q Q ~ ~ ~ ~ ~ ~ ~ ~ ~ ~ ~ ~ ~ ~ ~ ~ ~ ~ ~ ~ ~ Q Q ~ ~ ~ ~ ~ ~ Q Q Q W W W W E E W W W W W T T s   ",
"          . . . . . . . . o * * * * * = - - - - - - - - - - - - - - - - - - - - - - - - - - - - - - - * . . . .                 ",
"                          S 3.3.3.3.3.3.3.3.3.<.&.%.<.5.5.5.5.5.5.5.5.5.5.4.,.$.@.>.3.5.5.5.5.5.5.5.5.$.                        ",
"                          N 8.8.8.8.8.8.8.<.B *     * S 6.8.8.8.8.8.8.8.6.A *     . 7 %.8.8.8.8.8.8.8.|                         ",
"                          * 3.8.8.8.8.8.-.-             M 5.8.8.8.8.8.7.N             . } 8.8.8.8.8.8.N                         ",
"                            $.8.8.8.8.6.6                 Z 8.8.8.8.8.X.                . ,.8.8.8.8.2..                         ",
"                            B 8.8.8.8.%.                  . ,.8.8.8.7.7                   } 8.8.8.8...                          ",
"                            . 1.8.8.8.o.                    X.8.8.8.5.-                   N 8.8.8.8.7                           ",
"                              ..8.8.8.$.                    X.8.8.8.5.-                   V 8.8.8.+.                            ",
"                              - 3.8.8.2..                   =.8.8.8.7.7                   X.8.8.7.7                             ",
"                                Z 8.8.8.A                 M 8.8.8.8.8.o.                * 2.8.8.S                               ",
"                                  +.8.8.2.6             - ;.8.8.8.8.8.7.B             . X.8.8.%..                               ",
"                                  * >.8.8.<.M       . M >.8.8.8.8.8.8.8.7.Z o       * | 8.8.,.-                                 ",
"                                    - -.8.8.7.-.| ..>.7.8.8.7...8 B -.8.8.8.2.X.A ..2.8.8.&.-                                   ",
"                                      * +.8.8.8.8.8.8.8.8.8.+.      M 8.8.8.8.8.8.8.8.6.} .                                     ",
"                                        . C 2.8.8.8.8.8.8.8.>.5   . X.8.8.8.8.8.8.8.>.8                                         ",
"                                            - } 2.8.8.8.8.8.8.5.-.<.8.8.8.8.8.8.3.} *                                           ",
"                                        7 o | A 6 N } &.3.6.7.8.8.8.8.7.6.2.@.V 5 C A 6 -                                       ",
"                                      N @.8 7.8.5.$.6 - * - 6 8 M M M 7 5 . M @.2.8.2.- -.6                                     ",
"                                    C 6.S | 8.8.8.8.N *.6.,.*.@.* +.&.-.>.B $.8.8.8.8.B O.2.8                                   ",
"                                  S 7.8.7 M <.8.8.7.6 ,.8.8.8.7.5 5.8.8.8.| ..8.8.8.6.C B 8.5.B                                 ",
"                                ..8.8.1.- X.7 B *.1.o 3.8.8.8.8.- 3.8.8.8.*.C 8.1.} 5 7 5 6.8.7.Z                               ",
"                            . o.8.8.8.&.6 8.7.@.V 5 . >.8.8.8.7.* ,.8.8.8.>.- B 7 A =.7.6 2.8.8.8.S                             ",
"                          * $.8.8.8.8.+.7 8.8.8.8.} * N M V A S . C A V N B o -.8.8.8.8.N >.8.8.8.8....                         ",
"                        - -.8.8.8.8.8.X.5 >.8.8.8.A } 8.7.,.&.X.  | -.5.8.8.8 *.8.8.8.8.C *.8.8.8.8.8.O.o                       ",
"          6 Z S M     6 <.8.8.8.8.8.8...8 5 S 1.8.B o.8.8.8.8.2.  -.8.8.8.8.C O.8.8.5.o.* $.8.8.8.8.8.8.%.*     6 M 6 .         ",
"        Z 7.8.8.8.| N 5.8.8.8.8.8.8.8.B } 5.S 6 S * $.8.8.8.8.<.  *.8.8.8.8.S } &.S 6 C V X.8.8.8.8.8.8.8.=.N %.8.8.8.%.5       ",
"      6 6.8.8.8.8.8.7.8.8.8.8.8.8.8.|   A 8.8.5.X.7 6 } &.1.7.>.  %.8.8.5.;.B o 7 | 5.8.Z * $.8.8.8.8.8.8.8.8.8.8.8.8.8.-..     ",
"      } 8.8.8.8.8.8.8.8.8.8.8.8.8.S .   V 8.8.8.8.7.<.X.N 6 7 7 . 7 B M M V X.,.7.8.8.8.N   . S 6.8.8.8.8.8.8.8.8.8.8.8.8.8     ",
"      X.8.8.8.8.8.8.8.8.8.8.8.7.Z       7 8.8.8.8.8.8.8.8.6.2.1.<.1.2.6.8.8.8.8.8.8.8.7.-       B 5.8.8.8.8.8.8.8.8.8.8.8.N     ",
"      Z 8.8.8.8.8.8.8.8.8.8.7.C         . 1.8.8.8.8.8.8.8.8.8.8.8.8.8.8.8.8.8.8.8.8.8.>..         B 8.8.8.8.8.8.8.8.8.8.7.5     ",
"      - 2.8.8.8.8.8.8.8.8.8.-.            } 8.8.8.8.8.8.8.8.8.8.8.8.8.8.8.8.8.8.8.8.8.}             %.8.8.8.8.8.8.8.8.8.X.      ",
"        7 %.7.8.8.8.8.8.8.8.7.6           5 7.8.8.8.8.8.8.8.8.8.8.8.8.8.8.8.8.8.8.8.5.-           C 6.8.8.8.8.8.5.5.5.} o       ",
"            . * %.8.8.8.8.8.8.A             S 8.8.8.8.8.8.8.8.8.8.8.8.8.8.8.8.8.8.8.o.            &.8.8.8.8.8.8.@.. .           ",
"                @.8.8.8.8.8.8.}             . +.8.8.8.8.8.8.8.8.8.8.8.8.8.8.8.8.8.,.-             >.8.8.8.8.8.8.X.              ",
"                @.8.8.8.8.8.8.V               . X.7.8.8.8.8.8.8.8.8.8.8.8.8.8.8.>.7               @.8.8.8.8.8.8.S               ",
"                V 8.8.8.8.8.>.*                   B =.8.8.8.8.8.8.8.8.8.8.8.2.| *                 7 2.8.8.8.8.6.7               ",
"                  C =.3.1.o.-                         8 } +.&.;.>.>.-.$.X.V o                       6 @.2.6.>.V                 ",
"                                                                                                          .                     ",
"                                                                                                                                "
};
